<svg width="114" height="116" viewBox="0 0 114 116" fill="none" xmlns="http://www.w3.org/2000/svg">
<g clip-path="url(#clip0_109_929)">
<path d="M75.7527 104.592H70.8894V99.6784H75.7527V104.592ZM85.4794 99.7617H80.6161V104.675H85.4794V99.7617ZM75.7527 89.9354H70.8894V94.8485H75.7527V89.9354ZM85.4794 89.9354H80.6161V94.8485H85.4794V89.9354ZM75.7527 80.1091H70.8894V85.0222H75.7527V80.1091ZM85.4794 80.1091H80.6161V85.0222H85.4794V80.1091ZM75.7527 70.2828H70.8894V75.196H75.7527V70.2828ZM85.4794 70.2828H80.6161V75.196H85.4794V70.2828ZM75.7527 60.4566H70.8894V65.3697H75.7527V60.4566ZM85.4794 60.4566H80.6161V65.3697H85.4794V60.4566ZM75.7527 50.7136H70.8894V55.6267H75.7527V50.7136ZM85.4794 50.7136H80.6161V55.6267H85.4794V50.7136ZM75.7527 40.8873H70.8894V45.8004H75.7527V40.8873ZM85.4794 40.8873H80.6161V45.8004H85.4794V40.8873ZM75.7527 31.061H70.8894V35.9742H75.7527V31.061ZM85.4794 31.061H80.6161V35.9742H85.4794V31.061ZM75.7527 21.2347H70.8894V26.1479H75.7527V21.2347ZM85.4794 21.2347H80.6161V26.1479H85.4794V21.2347ZM66.026 21.2347H61.1627V26.1479H66.026V21.2347ZM75.7527 11.4917H70.8894V16.4049H75.7527V11.4917ZM85.4794 11.4917H80.6161V16.4049H85.4794V11.4917ZM95.1236 99.7617H90.2603V104.675H95.1236V99.7617ZM95.1236 89.9354H90.2603V94.8485H95.1236V89.9354ZM95.1236 80.1091H90.2603V85.0222H95.1236V80.1091ZM95.1236 70.2828H90.2603V75.196H95.1236V70.2828ZM95.1236 60.4566H90.2603V65.3697H95.1236V60.4566ZM95.1236 50.7136H90.2603V55.6267H95.1236V50.7136ZM95.1236 40.8873H90.2603V45.8004H95.1236V40.8873ZM95.1236 31.061H90.2603V35.9742H95.1236V31.061ZM95.1236 21.2347H90.2603V26.1479H95.1236V21.2347ZM95.1236 11.4917H90.2603V16.4049H95.1236V11.4917ZM66.026 11.4917H61.1627V16.4049H66.026V11.4917ZM51.436 26.1479H56.2994V21.2347H51.436V26.1479ZM51.436 16.3216H56.2994V11.4085H51.436V16.3216ZM114 114.418C114 115.251 113.341 116 112.434 116H1.56616C0.741867 116 0 115.334 0 114.418C0 113.585 0.659437 112.836 1.56616 112.836H9.89154V35.0581H8.49024C7.66594 35.0581 6.92408 34.392 6.92408 33.4759C6.92408 32.6432 7.58351 31.8938 8.49024 31.8938H42.3688V3.16439H40.0607C39.2364 3.16439 38.4946 2.49821 38.4946 1.5822C38.4946 0.749463 39.154 0 40.0607 0H106.087C106.911 0 107.653 0.666189 107.653 1.5822C107.653 2.41493 106.993 3.16439 106.087 3.16439H104.191V112.836H112.516C113.341 112.919 114 113.585 114 114.418ZM45.5011 31.977H66.026C66.8503 31.977 67.5922 32.6432 67.5922 33.5592C67.5922 34.392 66.9328 35.1414 66.026 35.1414H65.1193V113.002H101.141V3.16439H45.5011V31.977ZM62.0694 112.919V35.0581H12.9414V112.919H62.0694ZM53.6616 43.6353C52.8373 43.6353 52.0954 44.3015 52.0954 45.2175V103.676C52.0954 104.508 52.7549 105.258 53.6616 105.258C54.4859 105.258 55.2278 104.592 55.2278 103.676V45.1342C55.2278 44.3015 54.5683 43.6353 53.6616 43.6353ZM42.8633 43.6353C42.039 43.6353 41.2972 44.3015 41.2972 45.2175V103.676C41.2972 104.508 41.9566 105.258 42.8633 105.258C43.7701 105.258 44.4295 104.592 44.4295 103.676V45.1342C44.4295 44.3015 43.7701 43.6353 42.8633 43.6353ZM32.1475 43.6353C31.3232 43.6353 30.5813 44.3015 30.5813 45.2175V103.676C30.5813 104.508 31.2408 105.258 32.1475 105.258C33.0542 105.258 33.7137 104.592 33.7137 103.676V45.1342C33.6312 44.3015 32.9718 43.6353 32.1475 43.6353ZM21.3492 43.6353C20.5249 43.6353 19.7831 44.3015 19.7831 45.2175V103.676C19.7831 104.508 20.4425 105.258 21.3492 105.258C22.1735 105.258 22.9154 104.592 22.9154 103.676V45.1342C22.833 44.3015 22.1735 43.6353 21.3492 43.6353Z" fill="#171715"/>
</g>
<defs>
<clipPath id="clip0_109_929">
<rect width="114" height="116" fill="white"/>
</clipPath>
</defs>
</svg>
