<svg width="111" height="87" viewBox="0 0 111 87" fill="none" xmlns="http://www.w3.org/2000/svg">
<g clip-path="url(#clip0_109_931)">
<path d="M89.5254 0.5C89.5291 0.500614 89.5332 0.501359 89.5371 0.501953C89.5555 0.504738 89.5819 0.50859 89.6133 0.509766H89.6182C89.6871 0.511664 89.7559 0.51681 89.8242 0.525391L90.0283 0.561523L90.0352 0.563477C90.0569 0.568074 90.0766 0.570797 90.0918 0.573242C90.1053 0.575409 90.1222 0.578083 90.1289 0.579102C90.1489 0.582143 90.1469 0.582008 90.1396 0.580078L90.1416 0.581055C90.298 0.621754 90.4496 0.680002 90.5938 0.753906L90.6035 0.760742L90.623 0.770508C90.61 0.763523 90.6039 0.758636 90.6191 0.769531C90.6238 0.772831 90.6377 0.782884 90.6494 0.791016C90.6626 0.800177 90.6802 0.812487 90.7012 0.825195L90.708 0.829102C90.7689 0.864769 90.8284 0.903184 90.8857 0.944336L91.0527 1.07617C91.0814 1.10091 91.0876 1.11214 91.1592 1.18457C91.2488 1.27514 91.3317 1.37263 91.4062 1.47656C91.4254 1.50335 91.4437 1.52513 91.457 1.54004C91.464 1.54777 91.4711 1.55571 91.4766 1.56152L110.111 30.127C110.115 30.1355 110.122 30.1537 110.13 30.1719C110.14 30.1935 110.154 30.2228 110.173 30.2549L110.175 30.2568C110.237 30.3605 110.29 30.4697 110.336 30.582C110.336 30.5836 110.337 30.5852 110.338 30.5869C110.341 30.5959 110.344 30.609 110.35 30.624L110.353 30.6328C110.375 30.6937 110.394 30.7558 110.411 30.8184L110.413 30.8262C110.458 30.983 110.487 31.1446 110.499 31.3076C110.499 31.3152 110.499 31.3277 110.498 31.3555V31.3867C110.519 32.0375 110.279 32.6772 109.807 33.1406L57.1035 84.9121L57.0762 84.9346L57.0518 84.9619L57.0479 84.9658C56.9456 85.0601 56.8357 85.1453 56.7188 85.2197L56.7158 85.2217L56.6768 85.2412C56.6635 85.2482 56.6458 85.2573 56.627 85.2686C56.5481 85.3138 56.4747 85.3525 56.4004 85.3848L56.3936 85.3877L56.3125 85.4238C56.3048 85.4267 56.2976 85.4298 56.291 85.4326C56.2897 85.433 56.2885 85.4342 56.2871 85.4346L56.2393 85.4492C56.1628 85.4749 56.0845 85.4965 56.0059 85.5137H56.0049C55.9667 85.522 55.931 85.5323 55.918 85.5361C55.9142 85.5372 55.9114 85.5384 55.9092 85.5391L55.8652 85.5469C55.74 85.568 55.6187 85.5791 55.5 85.5791C55.3604 85.5788 55.2211 85.5666 55.084 85.54L55.083 85.5391L55.0791 85.5371C55.0724 85.5351 55.058 85.5313 55.0439 85.5273C55.0308 85.5236 55.0142 85.519 54.9951 85.5146H54.9961C54.8992 85.4916 54.8198 85.4709 54.749 85.4453L54.7451 85.4434L54.6855 85.4258L54.6689 85.4199L54.6631 85.417C54.6599 85.4154 54.6568 85.4133 54.6523 85.4111C54.6481 85.409 54.6423 85.4061 54.6367 85.4033C54.6257 85.3979 54.6111 85.3911 54.5947 85.3838L54.5908 85.3818C54.5123 85.3476 54.4322 85.3055 54.3486 85.2559L54.3457 85.2539C54.325 85.2417 54.3059 85.2325 54.292 85.2256C54.2831 85.2211 54.2741 85.216 54.2676 85.2129C54.2619 85.2086 54.2549 85.2037 54.2471 85.1982L54.2363 85.1904L54.0664 85.0674C54.0127 85.0242 53.9609 84.9786 53.9111 84.9307L53.9082 84.9268L1.19336 33.1426C0.964288 32.9163 0.784318 32.6434 0.665039 32.3418C0.545666 32.0399 0.490206 31.7159 0.501953 31.3906V31.3066C0.512251 31.1512 0.541535 30.9913 0.587891 30.8262L0.588867 30.8223C0.607123 30.7554 0.626845 30.6937 0.648438 30.6338L0.650391 30.627C0.655529 30.6121 0.659392 30.5991 0.662109 30.5898C0.662883 30.5872 0.663425 30.5843 0.664062 30.582C0.7095 30.4703 0.763182 30.3619 0.825195 30.2588L0.829102 30.2529C0.847582 30.2212 0.861065 30.1925 0.870117 30.1719C0.876526 30.1573 0.882202 30.1416 0.885742 30.1328L19.5234 1.56152C19.5269 1.55775 19.5315 1.55397 19.5352 1.5498C19.5476 1.53582 19.5649 1.51567 19.583 1.49023L19.585 1.4873C19.6619 1.3779 19.7482 1.27559 19.8428 1.18164L19.8467 1.17773C19.8746 1.1495 19.9028 1.11788 19.9141 1.10547C19.9212 1.09763 19.926 1.09269 19.9297 1.08887C19.9333 1.08514 19.9346 1.08295 19.9346 1.08301C20.0579 0.97107 20.1932 0.873741 20.3369 0.791016C20.3397 0.789933 20.3428 0.789277 20.3457 0.788086C20.3591 0.782606 20.3783 0.774211 20.4004 0.762695C20.5434 0.688275 20.6891 0.63015 20.8379 0.588867L20.8389 0.589844C20.8782 0.579046 20.8806 0.581751 20.9854 0.560547L20.9912 0.55957C21.1133 0.533409 21.2376 0.517715 21.3623 0.512695H21.3711C21.4014 0.510892 21.4277 0.506678 21.4453 0.503906C21.4538 0.502567 21.4628 0.501233 21.4697 0.5H89.5254ZM54.2852 85.2266C54.2886 85.2291 54.2906 85.2307 54.2891 85.2295L54.2871 85.2285C54.2865 85.228 54.2851 85.2273 54.2842 85.2266C54.2832 85.2258 54.2817 85.2248 54.2803 85.2236C54.282 85.2249 54.284 85.2257 54.2852 85.2266ZM40.3623 34.4639L55.0791 75.3066L55.541 76.5869L56.0186 75.3125L71.2988 34.4697L71.5518 33.7939H40.1211L40.3623 34.4639ZM9.32715 34.6514L48.3525 72.9873L49.1729 72.4609L35.3594 34.125L35.2402 33.7939H8.45508L9.32715 34.6514ZM76.334 34.1191L62.084 72.207L62.9023 72.7383L101.674 34.6514L102.546 33.7939H76.4551L76.334 34.1191ZM20.7959 8.04004L7.55957 28.333L7.05469 29.1064H32.9609L32.5654 28.3691L21.6553 8.07715L21.2559 7.33496L20.7959 8.04004ZM55.4414 7.61914L41.6875 28.3301L41.1719 29.1064H70.5439L70.0283 28.3301L56.2744 7.61914L55.8574 6.99219L55.4414 7.61914ZM89.4004 8.17383L79.041 28.3779L78.668 29.1064H103.948L103.443 28.333L90.2637 8.12891L89.793 7.40723L89.4004 8.17383ZM25.7061 5.89648L36.6523 26.2559L37.0479 26.9912L37.5098 26.2959L51.0303 5.93652L51.5459 5.16016H25.3105L25.7061 5.89648ZM60.6855 5.93652L74.1484 26.209L74.6201 26.9199L75.0098 26.1602L85.4033 5.8877L85.7773 5.16016H60.1699L60.6855 5.93652Z" fill="#171715" stroke="white"/>
</g>
<defs>
<clipPath id="clip0_109_931">
<rect width="111" height="86.08" fill="white"/>
</clipPath>
</defs>
</svg>
