<?xml version="1.0" encoding="UTF-8"?>
<svg id="Layer_1" xmlns="http://www.w3.org/2000/svg" version="1.1" viewBox="0 0 1500 1500">
  <!-- Generator: Adobe Illustrator 29.8.2, SVG Export Plug-In . SVG Version: 2.1.1 Build 3)  -->
  <defs>
    <style>
      .st0 {
        fill: #111114;
      }
    </style>
  </defs>
  <path class="st0" d="M947.98,368.67h-394.48c-101.64,0-184.09,82.45-184.09,184.09v394.48c0,101.64,82.45,184.09,184.09,184.09h394.48c101.64,0,184.09-82.45,184.09-184.09v-394.48c0-101.64-82.45-184.09-184.09-184.09ZM1066.33,934.08c0,72.58-58.91,131.49-131.49,131.49h-368.18c-72.58,0-131.49-58.91-131.49-131.49v-368.18c0-72.58,58.91-131.49,131.49-131.49h368.18c72.58,0,131.49,58.91,131.49,131.49v368.18Z"/>
  <path class="st0" d="M750.74,552.76c-108.88,0-197.24,88.36-197.24,197.24s88.36,197.24,197.24,197.24,197.24-88.36,197.24-197.24-88.36-197.24-197.24-197.24ZM750.74,881.49c-72.45,0-131.49-59.04-131.49-131.49s59.04-131.49,131.49-131.49,131.49,59.04,131.49,131.49-59.04,131.49-131.49,131.49Z"/>
  <path class="st0" d="M961.13,579.06c-21.75,0-39.45-17.7-39.45-39.45s17.7-39.45,39.45-39.45,39.45,17.7,39.45,39.45-17.7,39.45-39.45,39.45Z"/>
  <path class="st0" d="M1325.63,0H174.37C78.08,0,0,78.08,0,174.37v1151.25c0,96.29,78.08,174.37,174.37,174.37h1151.25c96.29,0,174.37-78.08,174.37-174.37V174.37C1500,78.08,1421.92,0,1325.63,0ZM1430.25,1325.63c0,57.68-46.94,104.62-104.62,104.62H174.37c-57.68,0-104.62-46.94-104.62-104.62V174.37c0-57.68,46.94-104.62,104.62-104.62h1151.25c57.68,0,104.62,46.94,104.62,104.62v1151.25Z"/>
</svg>