<?xml version="1.0" encoding="UTF-8"?>
<svg id="Layer_1" xmlns="http://www.w3.org/2000/svg" version="1.1" viewBox="0 0 595.68 603.33">
  <!-- Generator: Adobe Illustrator 29.8.2, SVG Export Plug-In . SVG Version: 2.1.1 Build 3)  -->
  <defs>
    <style>
      .st0 {
        fill: #231f20;
      }

      .st1 {
        fill: none;
        stroke: #231f20;
        stroke-linecap: round;
        stroke-linejoin: round;
        stroke-width: 4.1px;
      }
    </style>
  </defs>
  <path class="st1" d="M208.1,452.56h-16.57c-5.33,0-10.41-2.13-14.12-5.91l-98.13-99.83c-.73-.76-1.75-1.19-2.8-1.19h-6.79c-2.18,0-3.95,1.77-3.95,3.95,0,.72.21,1.44.58,2.05l71.44,116.11c3.59,5.84,9.98,9.39,16.85,9.39h235.32c2.16,0,3.93-1.77,3.93-3.94,0-1.69-1.09-3.2-2.69-3.74l-48.28-16.2c-1.26-.42-2.41-1.18-3.31-2.16-2.95-3.23-2.71-8.22.53-11.14l69.14-62.71c.98-.88,2.16-1.52,3.43-1.83,4.25-1.05,8.53,1.54,9.56,5.76l22.23,89.96c.88,3.52,4.05,6,7.68,6h63.55l17.3-23.17c1.32-1.75.96-4.22-.81-5.52-.51-.39-1.09-.63-1.75-.72l-46.87-7.36-1.02-81.82c-.06-3.92,1.05-7.77,3.22-11.06l34.56-52.59c4.63-7.05,4.25-16.26-.96-22.92l-34.09-43.66c-3.86-4.94-5.14-11.42-3.44-17.43l4.74-16.92c.02-.08.04-.18.08-.26.73-2.05,3.01-3.11,5.06-2.38l20.1,7.18c2.05.74,4.31-.33,5.06-2.38.21-.56.28-1.18.21-1.78l-1.39-11.89c-.17-1.39-1.05-2.59-2.33-3.15l-21.21-9.29c-1.37-.6-2.3-1.92-2.37-3.41l-.28-5.3c-.08-1.56-1.09-2.94-2.56-3.47l-80.96-30.3c-2.03-.76-4.31.27-5.08,2.31-.41,1.09-.32,2.32.26,3.33l13.33,23.45-36.37,44.65c-5.82,7.15-15.85,9.34-24.11,5.23l-16.26-8.04c-7.74-3.85-12.08-12.27-10.71-20.8l6.98-43.29c2.97-18.53-7.53-36.59-25.15-43.18L71.22,2.3c-2.03-.77-4.31.26-5.08,2.3-.36.95-.34,2,.06,2.93l73.41,173.91c3.58,8.5,10.05,15.48,18.26,19.72l133.56,68.91c1.19.63,2.32,1.37,3.37,2.22,8.47,6.86,9.75,19.28,2.88,27.73l-77.23,94.81c-2.86,3.51-4.42,7.91-4.42,12.43v37.42c0,4.35-3.56,7.88-7.91,7.88Z"/>
  <g>
    <path class="st0" d="M42.24,577.27c.33,17.92-8.83,26.06-21.04,26.06-8.17,0-14.69-3.7-18.15-10.85-.58-1.16,0-1.97,1.24-1.97h6.27c.82,0,1.4.32,1.98.98,2.15,2.55,5.2,3.29,8.5,3.29,6.35,0,11.05-3.29,10.8-14.23v-1.06h-.49c-2.8,3.21-5.77,4.43-10.48,4.43-12.38,0-20.88-9.04-20.88-22.77,0-12.83,7.43-22.69,18.15-22.69,5.44,0,10.4,2.55,13.29,7.4h.66l.08-4.43c.08-1.06.66-1.65,1.74-1.65h6.18c1.07,0,1.65.58,1.65,1.65l.49,35.84ZM32.67,562.48c.16-9.78-5.12-15.54-11.8-15.54s-11.22,5.59-11.22,15.04c0,8.64,3.88,13.4,11.14,13.4,6.6,0,12.05-4.03,11.88-12.9Z"/>
    <path class="st0" d="M77.6,547.11c0,1.06-.58,1.64-1.65,1.64-7.59.24-13.04,2.64-12.54,13.89l.16,19.65c0,1.07-.57,1.64-1.65,1.64h-6.85c-1.07,0-1.65-.56-1.65-1.64l.33-40.86c0-1.06.58-1.65,1.65-1.65h6.19c1.07,0,1.65.58,1.65,1.65l.08,4.19h.66c2.97-3.94,7.34-6.57,11.88-7.07,1.15-.08,1.73.5,1.73,1.65v6.91Z"/>
    <path class="st0" d="M96.06,582.29c0,1.07-.58,1.64-1.65,1.64h-6.85c-1.07,0-1.65-.56-1.65-1.64l.33-40.86c0-1.06.57-1.65,1.65-1.65h6.19c1.07,0,1.65.58,1.65,1.65l.33,40.86ZM95.81,529.92c0,1.07-.58,1.64-1.65,1.64h-6.19c-1.07,0-1.65-.56-1.65-1.64v-6.16c0-1.06.58-1.65,1.65-1.65h6.19c1.07,0,1.65.58,1.65,1.65v6.16Z"/>
    <path class="st0" d="M133.66,529.02c0,1.07-.58,1.64-1.65,1.64-7.18.17-10.89.5-10.8,8.72v.41h10.4c1.07,0,1.65.58,1.65,1.65v4.77c0,1.06-.58,1.64-1.65,1.64h-10.32l.25,34.45c0,1.07-.58,1.64-1.65,1.64h-6.85c-1.07,0-1.65-.56-1.65-1.64l.25-34.45h-5.28c-1.07,0-1.65-.57-1.65-1.64v-4.77c0-1.06.58-1.65,1.65-1.65h5.36c.25-14.8,9.74-18.25,20.38-17.75.99,0,1.57.66,1.57,1.64v5.35Z"/>
    <path class="st0" d="M181.82,561.32c0,13.82-9.49,23.93-21.94,23.93s-21.21-9.62-21.21-23.18,9.41-23.6,21.95-23.6,21.2,9.2,21.2,22.85ZM148.32,561.16c0,9.46,5.61,15.45,12.54,15.45,6.52,0,11.22-5.51,11.22-14.22,0-9.62-5.52-15.45-12.54-15.45-6.52,0-11.22,5.35-11.22,14.22Z"/>
    <path class="st0" d="M238.04,554.26l.17,29.01c0,.41-.25.66-.66.66h-1.81c-.41,0-.66-.24-.66-.66v-6.57l-.49-.08c-2.97,4.6-8.41,7.81-15.59,7.81-7.59,0-13.2-3.62-13.2-11.59s6.02-12.25,22.11-13.4c5.12-.34,7.18-1.24,7.18-5.59,0-5.84-3.79-10.52-12.29-10.52-6.6,0-11.14,3.28-12.38,8.38-.16.41-.33.58-.74.58h-1.57c-.5,0-.74-.24-.66-.58,1.4-6.74,6.93-11.09,15.51-11.09,10.07,0,15.1,5.34,15.1,13.65ZM234.66,560.26c-1.4,1.06-3.05,1.56-7.1,1.89-13.53.98-18.73,4.2-18.73,10.52s4.38,8.96,10.72,8.96c8.09,0,13.78-4.86,15.51-9.54v-11.67l-.41-.16Z"/>
    <path class="st0" d="M271.01,543.24c0,.4-.24.66-.66.66-6.6.24-11.96,3.45-15.02,11.43l.08,27.94c0,.41-.25.66-.66.66h-1.82c-.41,0-.66-.24-.66-.66v-41.35c0-.4.24-.65.66-.65h1.73c.41,0,.66.24.66.65v7.81l.5.08c2.97-5.02,7.59-8.96,14.52-9.2.41,0,.66.24.66.66v1.97Z"/>
    <path class="st0" d="M311.33,548.01l.33-.08.08-6c0-.4.25-.65.66-.65h1.65c.41,0,.66.24.66.65l.08,59.44c0,.41-.25.66-.66.66h-1.82c-.41,0-.66-.24-.66-.66v-24l-.33-.17c-3.71,4.69-8.66,7.32-14.77,7.32-11.22,0-19.05-8.88-19.05-22.19s7.34-21.7,18.56-21.7c6.11,0,11.88,2.54,15.27,7.4ZM280.56,562.56c0,11.5,6.52,19.14,16.09,19.14,6.77,0,12.29-3.86,15.18-10.77v-17.02c-2.56-6.9-8.58-10.44-15.1-10.44-9.9,0-16.17,7.73-16.17,19.08Z"/>
    <path class="st0" d="M360.47,583.27c0,.41-.25.66-.67.66h-1.89c-.41,0-.66-.24-.66-.66l.08-6.57-.41-.17c-3.46,4.2-8.24,7.98-15.26,7.98-7.67,0-12.79-4.69-12.71-14.14v-28.45c0-.4.24-.65.66-.65h1.73c.41,0,.66.24.66.65v27.7c0,8.15,3.96,11.92,10.48,11.92s11.31-3.77,14.85-10.11v-29.52c0-.4.24-.65.66-.65h1.73c.41,0,.66.24.66.65l.09,41.35Z"/>
    <path class="st0" d="M378.42,528.85c0,.41-.25.66-.67.66h-1.73c-.4,0-.66-.24-.66-.66v-4.59c0-.41.25-.66.66-.66h1.73c.41,0,.67.24.67.66v4.59ZM378.51,583.27c0,.41-.24.66-.66.66h-1.83c-.4,0-.66-.24-.66-.66v-41.35c0-.4.25-.65.66-.65h1.73c.41,0,.67.24.67.65l.08,41.35Z"/>
    <path class="st0" d="M411,543.15c0,.41-.24.66-.66.66h-9.73l.08,39.46c0,.41-.24.66-.66.66h-1.9c-.41,0-.66-.24-.66-.66l.08-39.46h-7.76c-.4,0-.66-.24-.66-.66v-1.23c0-.4.25-.65.66-.65h7.76l.08-16.86c0-.41.24-.66.66-.66h1.66c.4,0,.66.24.66.66v16.86h9.73c.41,0,.66.24.66.65v1.23Z"/>
    <path class="st0" d="M454.21,561c0,.41-.24.66-.66.66h-33.01c-.49,10.77,5.04,20.05,16.18,20.05,6.35,0,10.8-3.03,13.45-7.72.16-.34.41-.5.73-.5h1.83c.49,0,.66.33.49.74-3.13,6.49-8.83,10.28-16.67,10.28-11.62,0-19.06-8.88-19.06-21.54,0-13.32,8.09-22.03,19.14-22.03s17.66,8.72,17.57,20.07ZM420.8,559.02h30.36c-.5-8.63-5.94-15.21-14.69-15.21s-14.51,6-15.67,15.21Z"/>
    <path class="st0" d="M483.47,543.15c0,.41-.25.66-.66.66h-9.74l.08,39.46c0,.41-.24.66-.66.66h-1.9c-.41,0-.66-.24-.66-.66l.08-39.46h-7.76c-.4,0-.66-.24-.66-.66v-1.23c0-.4.25-.65.66-.65h7.76l.09-16.86c0-.41.24-.66.66-.66h1.65c.4,0,.66.24.66.66v16.86h9.74c.4,0,.66.24.66.65v1.23Z"/>
    <path class="st0" d="M523.96,583.27c0,.41-.25.66-.67.66h-1.89c-.41,0-.66-.24-.66-.66l.08-6.57-.41-.17c-3.46,4.2-8.24,7.98-15.26,7.98-7.67,0-12.79-4.69-12.71-14.14v-28.45c0-.4.24-.65.66-.65h1.73c.41,0,.66.24.66.65v27.7c0,8.15,3.96,11.92,10.48,11.92s11.31-3.77,14.85-10.11v-29.52c0-.4.24-.65.66-.65h1.73c.41,0,.66.24.66.65l.09,41.35Z"/>
    <path class="st0" d="M556.75,543.24c0,.4-.24.66-.66.66-6.59.24-11.95,3.45-15.01,11.43l.08,27.94c0,.41-.24.66-.66.66h-1.82c-.41,0-.66-.24-.66-.66v-41.35c0-.4.24-.65.66-.65h1.73c.41,0,.66.24.66.65v7.81l.5.08c2.97-5.02,7.59-8.96,14.51-9.2.41,0,.66.24.66.66v1.97Z"/>
    <path class="st0" d="M595.51,554.26l.17,29.01c0,.41-.24.66-.66.66h-1.82c-.41,0-.67-.24-.67-.66v-6.57l-.49-.08c-2.97,4.6-8.41,7.81-15.59,7.81-7.6,0-13.21-3.62-13.21-11.59s6.02-12.25,22.11-13.4c5.12-.34,7.17-1.24,7.17-5.59,0-5.84-3.78-10.52-12.29-10.52-6.59,0-11.13,3.28-12.37,8.38-.17.41-.34.58-.74.58h-1.57c-.49,0-.73-.24-.66-.58,1.4-6.74,6.93-11.09,15.51-11.09,10.07,0,15.1,5.34,15.1,13.65ZM592.13,560.26c-1.4,1.06-3.06,1.56-7.1,1.89-13.53.98-18.73,4.2-18.73,10.52s4.38,8.96,10.72,8.96c8.09,0,13.78-4.86,15.51-9.54v-11.67l-.4-.16Z"/>
  </g>
</svg>