<?xml version="1.0" encoding="UTF-8"?>
<svg id="Layer_1" xmlns="http://www.w3.org/2000/svg" version="1.1" viewBox="0 0 1080 350.36">
  <!-- Generator: Adobe Illustrator 29.8.2, SVG Export Plug-In . SVG Version: 2.1.1 Build 3)  -->
  <defs>
    <style>
      .st0 {
        fill: #e6dece;
      }
    </style>
  </defs>
  <path class="st0" d="M130.6,278.67c1.66,4.16,4.37,7.9,8.11,11.23,3.75,3.33,7.55,4.99,11.44,4.99h-61.97L20.8,23.71c-.83-3.05-2.29-6.03-4.37-8.94-2.08-2.91-4.65-5.41-7.69-7.49C5.69,5.2,2.78,4.16,0,4.16h77.36c-4.16,0-7.28,2.08-9.36,6.24-2.08,4.16-2.57,8.46-1.46,12.89l61.97,248.73L190.91,21.21c.55-2.77.55-5.47,0-8.11-.56-2.63-1.74-4.78-3.54-6.45-1.81-1.66-3.95-2.5-6.45-2.5h35.35c-4.16,0-8.53,2.08-13.1,6.24-4.58,4.16-7.56,8.46-8.94,12.89l-63.64,255.38Z"/>
  <path class="st0" d="M223.76,294.89c3.6,0,6.65-.9,9.15-2.7,2.5-1.8,4.22-4.09,5.2-6.86.97-2.77,1.46-6.1,1.46-9.98V23.71c0-4.71-1.6-9.15-4.78-13.31-3.19-4.16-6.86-6.24-11.02-6.24h193.82v35.35c-22.19-21.07-48.53-31.61-79.03-31.61h-53.24v123.53h4.58c25.51,0,49.77,5.55,72.79,16.64v36.6c-5.55-17.19-15.81-29.95-30.78-38.27-13.04-7.49-26.9-11.23-41.59-11.23h-43.67c.55,0,1.31.14,2.29.42.97.28,2.77.98,5.41,2.08,2.63,1.11,5.2,2.43,7.69,3.95,2.5,1.53,5.2,3.74,8.11,6.65,2.91,2.91,5.47,6.1,7.69,9.57,2.22,3.47,4.02,7.76,5.41,12.89,1.38,5.13,2.08,10.75,2.08,16.84v103.98h53.24c30.5,0,56.84-10.67,79.03-32.03v35.35h-193.82Z"/>
  <path class="st0" d="M626.38,262.87c3.05,7.77,6.51,15.67,10.4,23.71,3.88,8.04,8.45,16.43,13.73,25.16,5.26,8.74,11.23,16.15,17.89,22.25,6.65,6.1,13.17,9.7,19.55,10.81-1.94,0-4.78.62-8.53,1.87-3.74,1.25-6.31,2.01-7.69,2.29-21.91,4.16-39.93-.98-54.07-15.39-4.72-4.72-8.88-10.05-12.48-16.01-3.61-5.97-6.66-12.62-9.15-19.97-2.5-7.34-4.44-13.73-5.82-19.13-1.39-5.41-3.05-12.68-4.99-21.83-1.94-9.15-3.47-15.66-4.57-19.55-6.93-28.28-12.48-47.14-16.64-56.57-1.11-2.77-2.49-5.68-4.16-8.73-1.66-3.05-3.05-5.47-4.16-7.28-1.11-1.8-3.05-4.58-5.82-8.32-2.78-3.74-4.44-6.03-4.99-6.86-.56-.83-2.64-3.47-6.24-7.9-3.61-4.43-5.41-6.79-5.41-7.07-17.75-22.18-28.98-42.01-33.69-59.48v200.48c0,4.72,1.59,9.15,4.78,13.31,3.18,4.16,6.86,6.24,11.02,6.24h-77.36c4.16,0,7.83-2.08,11.02-6.24,3.19-4.16,4.78-8.59,4.78-13.31V23.71c0-4.71-1.6-9.15-4.78-13.31-3.19-4.16-6.86-6.24-11.02-6.24h100.66c62.11,0,93.17,21.77,93.17,65.3,0,8.05-2.43,16.01-7.28,23.91-4.85,7.9-10.68,14.56-17.47,19.97-6.8,5.41-14.29,10.33-22.46,14.76-8.18,4.44-15.25,7.84-21.21,10.19-5.97,2.36-10.75,3.95-14.35,4.78,19.13,12.76,32.03,22.67,38.68,29.74,6.65,7.07,12.75,16.71,18.3,28.91,1.66,3.89,5.33,14.56,11.02,32.03,5.68,17.47,8.8,27.18,9.36,29.11M537.37,133.1c2.77,2.5,5.26,4.72,7.49,6.65,8.04-3.05,14.97-7.49,20.8-13.31s10.05-11.92,12.69-18.3c2.63-6.38,4.58-11.99,5.82-16.85,1.25-4.85,1.87-8.94,1.87-12.27,0-15.53-2.22-28.76-6.66-39.72-4.44-10.95-10.26-18.92-17.47-23.92-7.21-4.99-15.39-7.49-24.54-7.49h-76.12c6.66.83,12.54,3.19,17.68,7.07,5.13,3.89,9.08,8.46,11.85,13.73,2.77,5.27,4.99,10.47,6.65,15.6,1.66,5.13,2.77,9.5,3.33,13.1l.83,5.41c4.71,27.73,16.64,51.16,35.77,70.29"/>
  <path class="st0" d="M673.38,23.71c0-4.71-1.6-9.15-4.78-13.31-3.19-4.16-6.86-6.24-11.02-6.24h77.36c-4.16,0-7.84,2.08-11.02,6.24-3.19,4.16-4.78,8.6-4.78,13.31v205.05c0,18.3,5.06,33.34,15.18,45.13,10.12,11.79,22.39,17.68,36.81,17.68h11.23c18.57,0,34.45-6.65,47.62-19.96,13.17-13.31,19.76-29.25,19.76-47.83V23.71c0-4.71-1.6-9.15-4.78-13.31-3.19-4.16-6.86-6.24-11.02-6.24h35.35c-4.44,0-8.25,2.08-11.44,6.24-3.19,4.16-4.78,8.6-4.78,13.31v200.48c0,19.69-6.86,36.39-20.59,50.12s-30.3,20.59-49.7,20.59h-21.63c-16.64,0-31.4-3.12-44.3-9.36-12.89-6.24-23.36-16.08-31.4-29.53-8.04-13.45-12.06-29.74-12.06-48.87V23.71Z"/>
  <path class="st0" d="M984.49,295.31c14.42,0,25.85-3.26,34.32-9.77,8.46-6.51,13.65-15.45,15.6-26.83,6.1-35.21-5.27-63.08-34.11-83.6l-74.45-53.24c-23.02-18.3-31.2-42.01-24.54-71.12,1.94-9.15,5.89-17.12,11.85-23.92,5.96-6.79,13.1-12.06,21.42-15.81,8.32-3.74,16.7-6.51,25.16-8.32,8.46-1.8,16.84-2.7,25.16-2.7,11.37,0,22.53,1.73,33.48,5.2,10.95,3.47,21.07,8.25,30.36,14.35,9.29,6.1,17.81,13.59,25.58,22.46l-22.04,22.04c-3.89-9.15-8.26-17.4-13.1-24.75-4.85-7.34-10.12-13.73-15.81-19.13-5.69-5.41-11.79-9.49-18.3-12.27-6.52-2.77-13.25-4.16-20.17-4.16-18.58,0-31.06,8.73-37.43,26.2-4.72,13.59-4.86,27.18-.42,40.76,4.43,13.59,12.48,24.54,24.12,32.86l72.79,51.99c15.53,11.09,26.13,25.79,31.82,44.09,5.68,18.3,5.61,35.08-.21,50.33-2.77,7.77-7,14.63-12.68,20.59-5.68,5.97-11.72,10.68-18.09,14.14-6.38,3.47-13.31,6.38-20.8,8.74-7.49,2.35-14.14,3.88-19.97,4.58-5.82.69-11.09,1.04-15.8,1.04-24.12,0-44.37-3.54-60.73-10.61-16.36-7.07-30.64-17.53-42.84-31.4l22.04-22.04c7.48,17.75,18.78,32.24,33.9,43.47,15.11,11.23,29.74,16.84,43.88,16.84"/>
</svg>