<?xml version="1.0" encoding="UTF-8"?>
<svg id="Layer_1" xmlns="http://www.w3.org/2000/svg" version="1.1" viewBox="0 0 1500 1500">
  <!-- Generator: Adobe Illustrator 29.8.2, SVG Export Plug-In . SVG Version: 2.1.1 Build 3)  -->
  <defs>
    <style>
      .st0 {
        fill: #111114;
      }
    </style>
  </defs>
  <path class="st0" d="M1325.67-.11H174.7C78.44-.11.37,77.95.37,174.22v1150.97c0,96.27,78.07,174.33,174.33,174.33h1150.97c96.27,0,174.33-78.07,174.33-174.33V174.22C1500,77.95,1421.93-.11,1325.67-.11ZM1430.27,1325.19c0,57.67-46.93,104.6-104.6,104.6H174.7c-57.67,0-104.6-46.93-104.6-104.6V174.22c0-57.67,46.93-104.6,104.6-104.6h1150.97c57.67,0,104.6,46.93,104.6,104.6v1150.97Z"/>
  <g>
    <path class="st0" d="M750.94,1077.01c-102.59,0-205.18.05-307.77-.05-18.72-.02-37.53.25-55.91-4.28-49.66-12.23-84.69-42.21-106.42-88.17-10.21-21.6-13.76-44.5-13.72-68.25.14-89.47.03-178.95.05-268.42,0-25.76-.14-51.53.28-77.29.38-23.29,5.84-45.58,17.16-65.95,28.37-51.06,71.56-79.97,130.37-81.46,56.65-1.43,113.36-.44,170.04-.45,160.68-.03,321.36-.07,482.03.07,13.07.01,26.37.14,39.17,2.41,57.38,10.15,96.05,43.5,117.36,97.35,7.52,19,9.61,38.99,9.62,59.27.02,66.99.09,133.98.06,200.96-.02,44.97-.09,89.94-.29,134.91-.1,22.19-3.42,43.8-12.36,64.35-16.83,38.73-44.61,66.16-83.39,83.04-20.73,9.02-42.3,11.64-64.44,11.74-32.79.15-65.58.04-98.37.04h-223.45v.17ZM1139.52,481.73c-16.35-11.11-32.7-16.11-50.38-16.83-8.42-.34-16.86-.4-25.29-.4-173.8.01-347.6.04-521.39.09-39.82.01-79.64.13-119.46.11-13.67,0-27.16,1.04-40.09,5.86-3.5,1.3-6.95,2.8-10.28,4.48-3.59,1.81-7.69,3.02-10.2,6.69,2.29,5.58,6.89,8.29,10.72,11.51,45.15,38,90.33,75.96,135.63,113.78,46.38,38.72,92.97,77.2,139.36,115.91,28.41,23.7,56.59,47.68,84.93,71.47,10.88,9.14,18.89,9.48,30.31,1,6.76-5.02,13.17-10.52,19.64-15.92,53.95-45.01,107.78-90.15,161.83-135.03,63.06-52.36,126.3-104.5,189.43-156.77,1.67-1.39,2.93-3.28,5.25-5.94ZM856.15,773.27c-16.61,13.74-32.04,26.6-47.59,39.34-9.05,7.42-18.03,14.97-27.48,21.85-20.9,15.21-46.26,12.06-61.72.41-4.86-3.66-9.77-7.28-14.47-11.13-17.4-14.24-34.66-28.63-52.12-42.8-3.13-2.54-5.73-6.42-11.15-5.9-2.62,2.05-5.61,4.28-8.48,6.66-33.2,27.47-66.38,54.95-99.56,82.44-54.09,44.81-108.2,89.6-162.21,134.5-4.89,4.07-10.36,7.83-13.26,14.55,6.24,6.4,13.4,10.57,21.19,13.8,17.2,7.15,35.31,8.9,53.69,8.91,26.7.02,53.4,0,80.1,0,180.34.04,360.67.09,541.01.11,8.9,0,17.8-.27,26.69-.45,20.69-.41,39.58-6.63,56.84-17.9,1.74-1.14,2.88-3.18,5-5.6-95.55-79.64-190.43-158.72-286.48-238.78ZM1170.67,512.75c-2.33,1.41-4.46,2.38-6.21,3.81-13.39,10.99-26.71,22.06-40.04,33.11-53.33,44.23-106.65,88.48-160,132.69-22.35,18.52-44.8,36.91-67.07,55.52-2.67,2.23-6.73,3.73-6.75,8.11.48,1.04.65,2.14,1.29,2.68,85.77,71.85,171.56,143.67,257.39,215.45,6.81,5.7,13.83,11.15,20.77,16.7.34.27.84.41,1.29.47.45.06.93-.04,2.04-.11,4.5-4.91,7.49-11.1,10.01-17.67,6.63-17.31,8.82-35.18,8.77-53.68-.26-102.08-.16-204.16-.2-306.24,0-10.3-.11-20.6-.21-30.9-.09-10.39-2.03-20.5-5.05-30.38-3.29-10.75-8.17-20.69-16.04-29.57ZM328.76,980.27c11.72-9.64,22.58-18.52,33.37-27.48,38.55-32.03,77.03-64.14,115.61-96.14,42.9-35.59,85.88-71.09,128.77-106.69,1.29-1.07,2.02-2.81,3.43-4.84-93.27-77.68-186.04-154.94-278.88-232.26-1.67,1.22-3,1.81-3.78,2.82-6.1,7.83-10.29,16.63-13.64,25.97-4.68,13.04-5.53,26.49-5.53,40.14,0,108.7-.08,217.39-.09,326.09,0,7.02.41,14.05.55,21.07.27,13.87,4.68,26.68,10.28,39.11,2.05,4.55,4.21,9.39,9.91,12.22Z"/>
    <path class="st0" d="M594.37,1088c-50.41,0-100.81-.01-151.22-.06h-3.17c-18.05,0-36.72,0-55.35-4.6-51.98-12.81-90.24-44.48-113.72-94.13-9.99-21.13-14.82-44.99-14.78-72.96.09-59.22.08-118.44.06-177.67,0-30.25-.02-60.49-.01-90.74v-16.37c-.03-20.01-.05-40.7.28-61.1.42-25.8,6.66-49.72,18.54-71.1,31.25-56.24,78.25-85.55,139.68-87.09,40.29-1.01,81.19-.81,120.75-.62,16.52.08,33.07.11,49.56.16h41.55c146.83-.03,293.66-.06,440.49.07,14.58.01,27.74.22,41.07,2.58,60.26,10.66,102.53,45.69,125.65,104.12,7.08,17.89,10.38,38,10.39,63.3l.03,62.64c.02,46.11.05,92.23.03,138.34-.02,54.14-.11,95.77-.29,134.96-.12,25.95-4.46,48.41-13.26,68.68-17.77,40.88-47.74,70.73-89.08,88.73-19.54,8.5-41.39,12.53-68.77,12.66-22.99.11-45.98.08-68.97.06l-241.93-.02-10.97.17h-78.29c-26.09.01-52.18.01-78.27.01ZM486.77,433.36c-23.83,0-47.81.17-71.53.77-53.11,1.34-93.84,26.85-121.05,75.81-10.11,18.19-15.42,38.65-15.78,60.79-.33,20.2-.31,40.8-.29,60.72v16.4c0,30.24.01,60.49.02,90.73.02,59.24.03,118.47-.06,177.71-.04,24.64,4.11,45.43,12.67,63.55,20.8,44.01,53.23,70.9,99.13,82.2,16.05,3.95,32.59,3.95,50.1,3.96h3.19c76.49.08,152.98.07,229.47.06l301.74-.18,29.48.02c22.94.02,45.9.05,68.85-.06,24.63-.12,43.16-3.46,60.11-10.83,36.59-15.92,62.01-41.22,77.71-77.35,7.6-17.48,11.34-37.11,11.45-60.03.18-39.16.27-80.75.29-134.87.02-46.1,0-92.21-.03-138.32l-.03-62.64c0-22.44-2.82-39.99-8.85-55.23-20.41-51.58-56.09-81.21-109.07-90.58-11.59-2.05-23.73-2.23-37.27-2.24-146.82-.13-293.64-.11-440.47-.08h-41.55c-16.7.03-33.12-.07-49.68-.16-16.01-.08-32.25-.16-48.56-.16ZM1054.1,1046.97c-133.58-.01-267.17-.04-400.75-.08l-140.26-.03h-33.81c-15.43,0-30.86.01-46.29,0-16.05-.01-37.13-1.13-57.89-9.75-10.28-4.27-18.17-9.44-24.84-16.28l-5.13-5.26,2.91-6.75c3.58-8.3,9.62-13.19,14.46-17.12l1.86-1.52c44.42-36.92,88.9-73.77,133.38-110.62l28.85-23.9c33.18-27.49,66.36-54.98,99.56-82.45,2.08-1.72,4.21-3.37,6.24-4.93l4.99-3.89,3.2-.31c9.22-.88,14.79,4.31,17.78,7.11.44.41.88.83,1.33,1.2,10.3,8.37,20.55,16.81,30.79,25.26,7.11,5.87,14.23,11.73,21.36,17.57,3.68,3.01,7.46,5.85,11.47,8.86l2.66,2c11.34,8.55,31.41,12.04,48.66-.51,7.69-5.6,15.3-11.86,22.66-17.92l4.33-3.55c10.81-8.85,21.57-17.77,32.71-27.01l21.86-18.1,302.11,251.81-7.41,8.46c-.58.66-1.06,1.29-1.51,1.86-1.37,1.76-3.08,3.95-5.75,5.7-19.32,12.62-40.39,19.24-62.63,19.69l-6.64.14c-6.76.15-13.51.3-20.27.3ZM513.09,1024.91l140.26.03c133.58.03,267.16.06,400.74.08,6.59,0,13.18-.15,19.77-.3l6.7-.15c15.79-.31,30.9-4.5,45.02-12.44l-269.46-224.59-7.8,6.46c-11.17,9.26-21.97,18.21-32.81,27.09l-4.29,3.52c-7.61,6.26-15.47,12.73-23.69,18.71-26.28,19.13-57.19,13.57-74.79.3l-2.63-1.98c-4.01-3.01-8.16-6.12-12.19-9.43-7.16-5.86-14.29-11.74-21.43-17.62-10.2-8.41-20.39-16.82-30.66-25.15-.78-.63-1.54-1.33-2.31-2.04-1.13.88-2.28,1.79-3.41,2.73-33.2,27.47-66.37,54.95-99.55,82.44l-28.85,23.9c-44.47,36.84-88.94,73.68-133.35,110.59l-2.07,1.69c-1.15.93-2.22,1.8-3.2,2.65,3.02,2.01,6.44,3.79,10.39,5.43,13.41,5.57,28.67,8.06,49.49,8.07,15.43.01,30.85,0,46.27,0h33.83ZM330.25,993.26l-6.37-3.16c-9.18-4.56-12.69-12.34-15-17.48-5.09-11.29-10.94-26.36-11.28-43.46-.05-2.74-.15-5.47-.25-8.21-.15-4.36-.3-8.72-.3-13.08,0-53.62.02-107.25.04-160.87.02-55.07.04-110.14.04-165.21,0-13.19.74-28.71,6.18-43.85,4.25-11.82,9.11-21.03,15.31-29,1.66-2.13,3.53-3.34,4.89-4.22.33-.21.69-.44,1.09-.73l6.91-5.04,293.18,244.17-5.73,8.26c-.35.5-.63.98-.9,1.42-.96,1.58-2.28,3.74-4.54,5.61-22.31,18.51-44.64,37-66.97,55.49-20.61,17.06-41.21,34.12-61.8,51.2-22.79,18.91-45.56,37.86-68.32,56.8-15.76,13.11-31.51,26.23-47.28,39.33-7.4,6.15-14.83,12.25-22.54,18.58l-16.36,13.45ZM332.08,527.98c-3.02,4.89-5.66,10.55-8.11,17.37-4.29,11.94-4.88,24.57-4.88,36.43,0,55.07-.02,110.14-.04,165.22-.02,53.62-.04,107.24-.04,160.86,0,4.1.15,8.21.29,12.31.1,2.85.2,5.69.26,8.54.26,13.12,5.12,25.5,9.32,34.82.29.65.56,1.24.82,1.78l3-2.47c7.68-6.31,15.08-12.38,22.44-18.5,15.76-13.1,31.51-26.21,47.27-39.32,22.77-18.95,45.55-37.91,68.35-56.83,20.59-17.08,41.2-34.15,61.82-51.21,20.48-16.95,40.96-33.91,61.42-50.88l-261.9-218.12ZM1171.64,992.29c-.55,0-1.17-.03-1.85-.13-2.53-.36-4.75-1.29-6.61-2.77l-5.61-4.46c-5.04-4-10.26-8.13-15.34-12.38-85.82-71.79-171.62-143.61-257.39-215.46-2.71-2.27-3.7-5.04-4.17-6.37l-1.03-2.23v-2.55c.04-9.09,6.66-13.66,9.48-15.61.41-.29.83-.55,1.19-.86,14.01-11.71,28.1-23.34,42.19-34.96,8.31-6.86,16.62-13.71,24.91-20.59,35.57-29.47,71.12-58.97,106.67-88.46l58.95-48.9c11.47-9.52,22.94-19.03,34.47-28.49,1.93-1.58,3.87-2.67,5.59-3.63.61-.34,1.24-.69,1.89-1.09l7.83-4.74,6.07,6.84c8.24,9.3,14.23,20.3,18.32,33.63,3.63,11.85,5.44,22.81,5.53,33.5l.05,5.22c.08,8.59.15,17.18.16,25.77v86.1c.01,72.15.01,146.75.2,220.12.06,22.25-2.96,40.56-9.5,57.63-2.42,6.31-5.98,14.41-12.17,21.16l-2.98,3.25-5.05.34c-.47.04-1.07.1-1.79.1ZM1176.84,972.2l.06.04s-.04-.03-.06-.04ZM905.27,745.57c83.66,70.08,167.34,140.13,251.04,210.14,4.46,3.73,9.12,7.44,13.68,11.06,1.05-2.05,2.09-4.41,3.14-7.17,5.54-14.47,8.1-30.27,8.05-49.73-.19-73.39-.19-148.01-.19-220.17v-86.09c-.02-8.53-.09-17.05-.17-25.58l-.05-5.23c-.08-8.54-1.57-17.46-4.57-27.26-2.09-6.83-4.7-12.68-7.99-17.86-10.42,8.56-20.79,17.17-31.17,25.78l-58.95,48.9c-35.55,29.49-71.11,58.99-106.68,88.46-8.31,6.88-16.63,13.75-24.95,20.62-13.75,11.35-27.51,22.7-41.2,34.13ZM748.54,812.52c-7.46,0-14.82-3.23-22.54-9.72-11.34-9.52-22.66-19.08-33.98-28.63-16.95-14.3-33.89-28.61-50.92-42.82-22.85-19.07-45.75-38.08-68.64-57.09-23.59-19.59-47.18-39.17-70.72-58.82-47.94-40.02-95.48-79.99-135.67-113.81-.65-.54-1.32-1.07-2-1.6-3.74-2.94-8.87-6.96-11.81-14.14l-2.25-5.49,3.35-4.89c3.72-5.42,8.76-7.72,12.44-9.4.64-.29,1.27-.58,1.88-.88,3.64-1.83,7.47-3.5,11.38-4.96,15.54-5.79,31.54-6.55,43.77-6.55,3.21-.05,6.53,0,9.79,0,19.22,0,38.43-.03,57.64-.06,17.39-.03,34.78-.05,52.17-.06,173.8-.04,347.6-.08,521.4-.09,8.1,0,16.83.05,25.74.41,20.45.83,38.8,6.95,56.11,18.71l10.26,6.97-8.17,9.33c-.72.82-1.32,1.56-1.87,2.23-1.34,1.65-2.73,3.35-4.64,4.93-24.27,20.1-48.57,40.18-72.86,60.27-38.88,32.14-77.75,64.27-116.56,96.5-35.32,29.33-70.55,58.77-105.77,88.21-18.68,15.61-37.35,31.21-56.04,46.81l-3.2,2.68c-5.42,4.55-11.03,9.25-16.92,13.63-7.45,5.54-14.45,8.31-21.37,8.31ZM379.22,484.03c.33.27.66.54.99.81,40.17,33.81,87.69,73.76,135.6,113.75,23.52,19.64,47.1,39.21,70.68,58.79,22.91,19.02,45.82,38.04,68.68,57.12,17.06,14.23,34.04,28.56,51.02,42.89,11.3,9.54,22.61,19.08,33.94,28.6,7.07,5.94,9.41,6.01,16.7.59,5.38-3.99,10.49-8.28,15.91-12.83l3.24-2.72c18.68-15.59,37.35-31.19,56.02-46.79,35.24-29.45,70.49-58.91,105.83-88.26,38.82-32.23,77.71-64.38,116.6-96.53,22.38-18.5,44.76-37,67.13-55.52-10.3-4.99-20.99-7.59-32.87-8.08-8.52-.35-16.97-.39-24.84-.39-173.8.01-347.59.04-521.39.09-17.38,0-34.76.03-52.14.06-22.44.03-44.88.07-67.32.06-11.04-.03-24.01.6-36.25,5.17-2.57.96-5.09,2.03-7.51,3.18Z"/>
  </g>
</svg>