<svg width="104" height="106" viewBox="0 0 104 106" fill="none" xmlns="http://www.w3.org/2000/svg">
<g clip-path="url(#clip0_136_352)">
<path d="M51.8979 106C42.1323 106 32.5514 103.182 24.1099 97.715C12.3885 90.1242 4.27009 78.3364 1.25021 64.524C-4.9839 36.0089 12.7083 7.64146 40.6913 1.28746C54.2483 -1.79182 68.1686 0.695849 79.888 8.2854C91.6094 15.8763 99.7291 27.6641 102.749 41.4778C108.985 69.9929 91.2909 98.3603 63.3092 104.713C59.563 105.566 55.7364 105.997 51.8979 106ZM52.0948 3.38624C48.5433 3.38624 44.9644 3.78507 41.4134 4.59066C15.2193 10.5385 -1.34393 37.094 4.49174 63.788C7.31987 76.7166 14.9196 87.7518 25.8922 94.859C36.8628 101.964 49.8926 104.289 62.5864 101.41C88.7819 95.4619 105.344 68.9064 99.5075 42.2138C96.68 29.2825 89.0796 18.248 78.1077 11.1427C70.2057 6.02497 61.2351 3.38624 52.0948 3.38624Z" fill="#171715"/>
<path d="M47.2957 93.341L46.4585 92.664C45.7422 92.0863 28.9236 78.2712 29.0347 57.7749C29.1134 43.4942 37.4171 29.7335 53.717 16.8738L54.9403 15.9092L55.9712 17.0851C56.8156 18.0471 76.5904 40.9157 72.37 64.0514C70.2048 75.9214 62.0896 85.6084 48.2467 92.8428L47.2957 93.341ZM54.4938 20.5573C39.8728 32.4484 32.4264 44.9702 32.3575 57.7948C32.2672 74.1995 44.4325 86.3351 47.7156 89.3091C59.9895 82.6464 67.1817 73.9485 69.1024 63.4472C72.5091 44.8192 58.4366 25.5187 54.4938 20.5573Z" fill="#171715"/>
<path d="M46.9278 105.567C46.4911 105.567 46.072 105.392 45.7612 105.079C45.4504 104.767 45.2729 104.342 45.267 103.897C45.2657 103.764 45.1214 90.4999 45.8215 75.405C46.6502 57.5534 48.2668 44.6406 50.6276 37.0279C50.6926 36.8156 50.7983 36.6185 50.9383 36.448C51.0784 36.2774 51.2502 36.1368 51.4438 36.0341C51.6374 35.9315 51.849 35.8689 52.0665 35.8499C52.2839 35.8309 52.5029 35.8559 52.7108 35.9235C53.1306 36.0586 53.4807 36.3581 53.6839 36.7561C53.8871 37.1542 53.9268 37.6182 53.7943 38.0462C51.5525 45.278 49.9438 58.2516 49.1391 75.5653C48.4423 90.5609 48.5866 103.724 48.5885 103.855C48.5912 104.077 48.5508 104.298 48.4698 104.504C48.3887 104.71 48.2685 104.898 48.1161 105.057C47.9637 105.217 47.782 105.343 47.5815 105.431C47.3809 105.518 47.1654 105.565 46.9473 105.567H46.9278Z" fill="#171715"/>
<path d="M47.349 80.2519H47.2996C47.0815 80.2453 46.8668 80.1951 46.6678 80.104C46.4688 80.0129 46.2894 79.8827 46.1397 79.7209C45.9901 79.5591 45.8732 79.3689 45.7957 79.161C45.7183 78.9531 45.6817 78.7318 45.6882 78.5095C45.8767 71.9713 52.144 64.3467 55.1567 60.6831C55.5747 60.1729 55.9101 59.7741 56.109 59.5104C56.2143 59.1806 56.4165 58.8916 56.6881 58.6826C56.9598 58.4736 57.2879 58.3546 57.628 58.3418C58.3528 58.3398 58.9215 58.7048 59.2095 59.3037C59.7288 60.3876 59.2589 60.9613 57.7028 62.8554C55.1463 65.9645 49.1631 73.2446 49.0084 78.6102C48.9952 79.0499 48.8147 79.4672 48.5049 79.7736C48.1952 80.08 47.7806 80.2516 47.349 80.2519Z" fill="#171715"/>
<path d="M48.25 64.7644C47.8107 64.7644 47.3894 64.5871 47.0782 64.2712C46.7669 63.9554 46.5911 63.5267 46.5892 63.079C46.5489 52.7593 42.0867 47.1387 42.0405 47.0824C41.7605 46.7372 41.6259 46.293 41.6662 45.847C41.7065 45.4009 41.9185 44.9893 42.2557 44.7021C42.5922 44.4145 43.027 44.275 43.4645 44.3141C43.902 44.3532 44.3063 44.5678 44.5885 44.9107C44.8037 45.1724 49.8652 51.4449 49.9107 63.0658C49.9115 63.2881 49.8694 63.5083 49.7867 63.714C49.7039 63.9197 49.5823 64.1067 49.4286 64.2644C49.2749 64.4221 49.0922 64.5474 48.8909 64.633C48.6897 64.7187 48.4739 64.7632 48.2558 64.7638L48.25 64.7644Z" fill="#171715"/>
</g>
<defs>
<clipPath id="clip0_136_352">
<rect width="104" height="106" fill="white"/>
</clipPath>
</defs>
</svg>
