<svg width="102" height="103" viewBox="0 0 102 103" fill="none" xmlns="http://www.w3.org/2000/svg">
<g clip-path="url(#clip0_136_359)">
<path d="M31.0434 103V78.37C31.0434 77.7761 30.8098 77.2066 30.3939 76.7867C29.9781 76.3668 29.4141 76.1309 28.826 76.1309H11.0865C10.4984 76.1309 9.93443 76.3668 9.51859 76.7867C9.10276 77.2066 8.86914 77.7761 8.86914 78.37V103H13.3039V80.6091H26.6081V103H31.0434Z" fill="#171715"/>
<path d="M62.0868 103V60.4569C62.0868 59.863 61.8531 59.2935 61.4373 58.8736C61.0215 58.4537 60.4575 58.2178 59.8694 58.2178H42.1305C41.5424 58.2178 40.9784 58.4537 40.5625 58.8736C40.1467 59.2935 39.9131 59.863 39.9131 60.4569V103H44.3478V62.696H57.652V103H62.0868Z" fill="#171715"/>
<path d="M65.7768 18.3607L69.7678 27.7652L73.7588 25.9741L66.663 9.4043L50.2552 16.5691L52.0289 20.5993L61.342 16.5691C56.0205 28.6601 48.9247 38.5127 39.6115 46.5736C33.4025 51.9473 26.3073 55.978 19.6552 59.1127L13.0031 61.7998C11.6726 62.2479 11.2294 62.2479 10.7857 62.6954L8.56836 63.1434L9.45519 67.6216L11.6726 67.1736C12.1163 67.1736 13.0031 66.7255 14.3336 66.278C16.551 65.3825 18.7684 64.9345 21.4294 63.5909C28.5252 60.4562 36.0642 55.978 42.7163 50.1562C52.4726 41.6479 60.0115 31.3479 65.7768 18.3607Z" fill="#171715"/>
<path d="M93.1303 103V38.0653C93.1303 37.4714 92.8967 36.9019 92.4808 36.482C92.065 36.0621 91.501 35.8262 90.9129 35.8262H73.1734C72.5853 35.8262 72.0214 36.0621 71.6055 36.482C71.1897 36.9019 70.9561 37.4714 70.9561 38.0653V103H75.3908V40.3044H88.695V103H93.1303Z" fill="#171715"/>
<path d="M102 98.5215V103H0V98.5215H102Z" fill="#171715"/>
<path d="M26.6093 31.7955C28.8267 31.3475 31.0441 30.0045 31.9309 27.7654C34.1483 22.8391 31.9309 19.7045 27.0525 17.0173C26.6088 16.5693 26.6088 17.0173 24.8351 16.1218C23.0614 15.2263 23.0614 15.2263 22.6177 14.7782C19.9567 13.4346 19.0698 12.0911 19.9567 10.3C21.2872 8.06089 26.1656 8.06089 27.9393 9.40447L29.713 10.7481L32.374 7.16537L30.6004 5.37374L26.6093 4.03016V0H22.174V4.03016C19.513 4.47821 17.2956 5.82122 15.9651 8.50837C13.7477 13.4346 15.9651 16.5693 20.8435 19.2564C21.7303 19.7045 21.2872 19.7045 23.0609 20.6C24.8345 21.4955 24.8345 21.4955 25.2782 21.4955C28.3824 22.8391 28.8261 24.1827 27.9393 25.9737C27.0525 28.2128 21.7303 28.2128 19.9567 26.8693L18.183 25.5257L15.5219 29.1084L17.2956 30.452C18.6261 31.3475 20.3998 31.7955 22.174 32.243V35.8257H26.6088L26.6093 31.7955Z" fill="#171715"/>
</g>
<defs>
<clipPath id="clip0_136_359">
<rect width="102" height="103" fill="white"/>
</clipPath>
</defs>
</svg>
